# xmcd
#
# Track frame offsets:
#	150
#	10990
#	24222
#	37469
#	55126
#	68489
#	80784
#	89905
#	103219
#	113880
#
# Disc length: 1699 seconds
#
# Revision: 0
# Processed by: cddbd v1.5.1PL0 Copyright (c) Steve Scherf et al.
# Submitted via: dBpowerAMP V4.0
#
DISCID=8806a10a
DTITLE=Margie LeBlanc - More Traditional Country
DYEAR=2004
DGENRE=Country
TTITLE0=Silver Threads Golden Needles
TTITLE1=Crazy Arms
TTITLE2=Hurtin's All Over
TTITLE3=Unchained Melody
TTITLE4=You Bring Out The Happiness In Me
TTITLE5=He Called Me Baby
TTITLE6=Love's Gonna Live Here
TTITLE7=Whiskey If Your Were A Woman
TTITLE8=Pride
TTITLE9=Family Bible
EXTD=
EXTT0=
EXTT1=
EXTT2=
EXTT3=
EXTT4=
EXTT5=
EXTT6=
EXTT7=
EXTT8=
EXTT9=
PLAYORDER=
